<svg width="312" height="26" viewBox="0 0 312 26" fill="none" xmlns="http://www.w3.org/2000/svg">
<path d="M8.112 9.384H2.96V12.36H6.944V13.944H2.96V19H1.264V7.8H8.112V9.384ZM10.8576 9.528H9.22563V7.8H10.8576V9.528ZM10.8576 19H9.22563V11.112H10.8576V19ZM19.8445 19H18.2125V14.68C18.2125 13.8693 18.0632 13.2827 17.7645 12.92C17.4765 12.5467 16.9965 12.36 16.3245 12.36C15.4072 12.36 14.7672 12.664 14.4045 13.272V19H12.7725V11.112H14.1485L14.2605 11.816C14.9325 11.24 15.7005 10.952 16.5645 10.952C18.7512 10.952 19.8445 12.1947 19.8445 14.68V19ZM28.3668 17.848L28.1588 19.16H27.8388C27.2628 19.16 26.8361 19.0747 26.5588 18.904C26.2921 18.7333 26.0681 18.4613 25.8868 18.088C25.2788 18.8027 24.4734 19.16 23.4708 19.16C23.1188 19.16 22.7934 19.1067 22.4948 19C22.2068 18.8827 21.9561 18.7227 21.7428 18.52C21.5401 18.3173 21.3801 18.0773 21.2628 17.8C21.1561 17.512 21.1028 17.192 21.1028 16.84C21.1028 16.3067 21.2521 15.864 21.5508 15.512C21.8494 15.1493 22.2281 14.8613 22.6868 14.648C23.1454 14.424 23.6414 14.2693 24.1748 14.184C24.7188 14.088 25.2308 14.0347 25.7108 14.024C25.7001 13.3947 25.5668 12.968 25.3108 12.744C25.0654 12.5093 24.6601 12.392 24.0948 12.392C23.4121 12.392 22.7081 12.6107 21.9828 13.048L21.7908 11.736C22.5801 11.2133 23.4974 10.952 24.5428 10.952C25.5241 10.952 26.2334 11.224 26.6708 11.768C27.1188 12.312 27.3428 13.2347 27.3428 14.536V16.328C27.3428 16.6267 27.3534 16.8773 27.3748 17.08C27.3961 17.272 27.4334 17.4267 27.4868 17.544C27.5508 17.6507 27.6361 17.7307 27.7428 17.784C27.8494 17.8267 27.9934 17.848 28.1748 17.848H28.3668ZM25.7268 16.984V15.128C23.7641 15.2027 22.7828 15.7467 22.7828 16.76C22.7828 17.5067 23.1721 17.88 23.9508 17.88C24.6548 17.88 25.2468 17.5813 25.7268 16.984ZM32.2436 17.848L32.0356 19.16H31.4916C30.7983 19.16 30.2863 18.9733 29.9556 18.6C29.625 18.2267 29.4596 17.7627 29.4596 17.208V7H31.0756V16.376C31.0756 16.7067 31.0863 16.968 31.1076 17.16C31.1396 17.352 31.193 17.5013 31.2676 17.608C31.353 17.704 31.4703 17.768 31.6196 17.8C31.7796 17.832 31.9876 17.848 32.2436 17.848ZM40.5273 19.224C38.9593 19.224 37.7326 18.9733 36.8473 18.472L37.0553 16.504C38.0046 17.2613 39.1726 17.64 40.5593 17.64C41.2953 17.64 41.8873 17.5173 42.3353 17.272C42.7833 17.0267 43.0073 16.632 43.0073 16.088C43.0073 15.8427 42.9539 15.624 42.8473 15.432C42.7406 15.24 42.5966 15.0693 42.4153 14.92C42.2446 14.7707 42.0419 14.6427 41.8073 14.536C41.5833 14.4187 41.3433 14.3173 41.0873 14.232L39.3113 13.64L38.5273 13.32C38.3246 13.2347 38.1113 13.128 37.8873 13C37.6739 12.8613 37.4713 12.696 37.2793 12.504C37.0979 12.312 36.9486 12.0933 36.8313 11.848C36.7139 11.6027 36.6553 11.3253 36.6553 11.016C36.6553 10.6107 36.7193 10.2053 36.8473 9.8C36.9859 9.384 37.2099 9.016 37.5193 8.696C37.8393 8.36533 38.2553 8.09867 38.7673 7.896C39.2899 7.68267 39.9353 7.576 40.7033 7.576C41.0339 7.576 41.3753 7.60267 41.7273 7.656C42.0793 7.69867 42.4153 7.75733 42.7353 7.832C43.0553 7.90667 43.3433 7.992 43.5993 8.088C43.8659 8.184 44.0793 8.28 44.2393 8.376L44.0633 10.152C42.7619 9.48 41.6846 9.144 40.8313 9.144C40.5326 9.144 40.2393 9.176 39.9513 9.24C39.6739 9.29333 39.4233 9.37867 39.1993 9.496C38.9859 9.61333 38.8099 9.768 38.6713 9.96C38.5433 10.152 38.4793 10.376 38.4793 10.632C38.4793 10.9627 38.5646 11.224 38.7353 11.416C38.9059 11.5973 39.1566 11.7627 39.4873 11.912C39.8179 12.0507 40.2286 12.1947 40.7193 12.344C41.2206 12.4933 41.7966 12.7013 42.4473 12.968C42.7353 13.0853 43.0233 13.2187 43.3113 13.368C43.5993 13.5173 43.8553 13.7093 44.0793 13.944C44.3139 14.1787 44.5059 14.4667 44.6553 14.808C44.8046 15.1493 44.8793 15.5653 44.8793 16.056C44.8793 16.3973 44.8259 16.7547 44.7193 17.128C44.6126 17.5013 44.3993 17.8427 44.0793 18.152C43.7699 18.4613 43.3273 18.7173 42.7513 18.92C42.1859 19.1227 41.4446 19.224 40.5273 19.224ZM49.775 19.16C49.1563 19.16 48.6017 19.0587 48.111 18.856C47.631 18.6427 47.2257 18.3547 46.895 17.992C46.5643 17.6187 46.3083 17.1813 46.127 16.68C45.9563 16.1787 45.871 15.6347 45.871 15.048C45.871 14.4613 45.9563 13.9173 46.127 13.416C46.2977 12.9147 46.5483 12.4827 46.879 12.12C47.2097 11.7467 47.615 11.4587 48.095 11.256C48.575 11.0533 49.1297 10.952 49.759 10.952C50.7723 10.952 51.5777 11.1227 52.175 11.464L51.967 12.904C51.3163 12.5413 50.6337 12.36 49.919 12.36C49.1403 12.36 48.5483 12.6 48.143 13.08C47.7377 13.5493 47.535 14.2053 47.535 15.048C47.535 15.8907 47.7377 16.5573 48.143 17.048C48.5483 17.528 49.1403 17.768 49.919 17.768C50.655 17.768 51.3377 17.5867 51.967 17.224L52.159 18.568C51.5403 18.9627 50.7457 19.16 49.775 19.16ZM56.9476 19.16C56.3503 19.16 55.8063 19.0587 55.3156 18.856C54.8356 18.6427 54.425 18.3547 54.0836 17.992C53.7423 17.6187 53.4756 17.1867 53.2836 16.696C53.1023 16.1947 53.0116 15.6507 53.0116 15.064C53.0116 14.488 53.1023 13.9493 53.2836 13.448C53.465 12.9467 53.7263 12.5147 54.0676 12.152C54.409 11.7787 54.8196 11.4853 55.2996 11.272C55.7903 11.0587 56.3396 10.952 56.9476 10.952C57.5556 10.952 58.0996 11.0587 58.5796 11.272C59.0703 11.4853 59.4863 11.7787 59.8276 12.152C60.1796 12.5253 60.4463 12.9627 60.6276 13.464C60.809 13.9547 60.8996 14.488 60.8996 15.064C60.8996 15.64 60.809 16.1787 60.6276 16.68C60.4463 17.1707 60.185 17.6027 59.8436 17.976C59.5023 18.3387 59.0863 18.6267 58.5956 18.84C58.105 19.0533 57.5556 19.16 56.9476 19.16ZM58.6276 13.08C58.2223 12.6 57.6623 12.36 56.9476 12.36C56.2223 12.36 55.6623 12.6 55.2676 13.08C54.873 13.56 54.6756 14.2213 54.6756 15.064C54.6756 15.9067 54.8676 16.568 55.2516 17.048C55.6463 17.5173 56.2116 17.752 56.9476 17.752C57.6836 17.752 58.249 17.512 58.6436 17.032C59.0383 16.552 59.2356 15.896 59.2356 15.064C59.2356 14.232 59.033 13.5707 58.6276 13.08ZM66.6386 10.872L66.3026 12.552H65.7266C65.5666 12.552 65.4013 12.5787 65.2306 12.632C65.06 12.6853 64.8946 12.7547 64.7346 12.84C64.5853 12.9253 64.4466 13.0267 64.3186 13.144C64.2013 13.2507 64.1106 13.368 64.0466 13.496V19H62.3506V11.112H63.7746L63.9026 12.248C64.7346 11.3307 65.5613 10.872 66.3826 10.872H66.6386ZM74.1488 15.208H68.6448C68.8154 16.904 69.7328 17.752 71.3968 17.752C72.2181 17.752 72.9914 17.576 73.7168 17.224L73.8768 18.552C73.0128 18.9573 72.1328 19.16 71.2368 19.16C70.5648 19.16 69.9621 19.0533 69.4288 18.84C68.8954 18.6267 68.4474 18.3387 68.0848 17.976C67.7221 17.6027 67.4448 17.1653 67.2528 16.664C67.0608 16.152 66.9648 15.6027 66.9648 15.016C66.9648 14.4507 67.0554 13.9227 67.2368 13.432C67.4181 12.9307 67.6741 12.4987 68.0048 12.136C68.3354 11.7627 68.7354 11.4747 69.2048 11.272C69.6848 11.0587 70.2181 10.952 70.8048 10.952C71.3061 10.952 71.7648 11.032 72.1808 11.192C72.6074 11.352 72.9701 11.5813 73.2688 11.88C73.5781 12.168 73.8128 12.52 73.9728 12.936C74.1434 13.352 74.2288 13.816 74.2288 14.328C74.2288 14.488 74.2181 14.6427 74.1968 14.792C74.1861 14.9307 74.1701 15.0693 74.1488 15.208ZM70.8048 12.36C69.6954 12.36 69.0074 12.936 68.7408 14.088H72.5648C72.5648 13.5653 72.4154 13.1493 72.1168 12.84C71.8288 12.52 71.3914 12.36 70.8048 12.36Z" fill="white"/>
<path d="M228.584 19.224C228.317 19.224 228.029 19.1973 227.72 19.144C227.421 19.1013 227.139 19.0427 226.872 18.968C226.605 18.8933 226.371 18.8133 226.168 18.728C225.976 18.6427 225.859 18.568 225.816 18.504L226.216 16.936C226.931 17.416 227.709 17.656 228.552 17.656C228.893 17.656 229.213 17.6027 229.512 17.496C229.821 17.3787 230.088 17.2187 230.312 17.016C230.536 16.8133 230.712 16.568 230.84 16.28C230.979 15.992 231.048 15.672 231.048 15.32C231.048 14.7013 230.808 14.2373 230.328 13.928C229.848 13.608 229.037 13.448 227.896 13.448H226.408L227.096 7.8H232.2L232.024 9.384H228.424L228.12 11.96C229.784 11.9707 230.984 12.2427 231.72 12.776C232.456 13.2987 232.824 14.1253 232.824 15.256C232.824 15.8533 232.707 16.3973 232.472 16.888C232.248 17.368 231.939 17.784 231.544 18.136C231.16 18.4773 230.712 18.744 230.2 18.936C229.688 19.128 229.149 19.224 228.584 19.224ZM241.746 19.224C240.178 19.224 238.951 18.9733 238.066 18.472L238.274 16.504C239.223 17.2613 240.391 17.64 241.778 17.64C242.514 17.64 243.106 17.5173 243.554 17.272C244.002 17.0267 244.226 16.632 244.226 16.088C244.226 15.8427 244.173 15.624 244.066 15.432C243.959 15.24 243.815 15.0693 243.634 14.92C243.463 14.7707 243.261 14.6427 243.026 14.536C242.802 14.4187 242.562 14.3173 242.306 14.232L240.53 13.64L239.746 13.32C239.543 13.2347 239.33 13.128 239.106 13C238.893 12.8613 238.69 12.696 238.498 12.504C238.317 12.312 238.167 12.0933 238.05 11.848C237.933 11.6027 237.874 11.3253 237.874 11.016C237.874 10.6107 237.938 10.2053 238.066 9.8C238.205 9.384 238.429 9.016 238.738 8.696C239.058 8.36533 239.474 8.09867 239.986 7.896C240.509 7.68267 241.154 7.576 241.922 7.576C242.253 7.576 242.594 7.60267 242.946 7.656C243.298 7.69867 243.634 7.75733 243.954 7.832C244.274 7.90667 244.562 7.992 244.818 8.088C245.085 8.184 245.298 8.28 245.458 8.376L245.282 10.152C243.981 9.48 242.903 9.144 242.05 9.144C241.751 9.144 241.458 9.176 241.17 9.24C240.893 9.29333 240.642 9.37867 240.418 9.496C240.205 9.61333 240.029 9.768 239.89 9.96C239.762 10.152 239.698 10.376 239.698 10.632C239.698 10.9627 239.783 11.224 239.954 11.416C240.125 11.5973 240.375 11.7627 240.706 11.912C241.037 12.0507 241.447 12.1947 241.938 12.344C242.439 12.4933 243.015 12.7013 243.666 12.968C243.954 13.0853 244.242 13.2187 244.53 13.368C244.818 13.5173 245.074 13.7093 245.298 13.944C245.533 14.1787 245.725 14.4667 245.874 14.808C246.023 15.1493 246.098 15.5653 246.098 16.056C246.098 16.3973 246.045 16.7547 245.938 17.128C245.831 17.5013 245.618 17.8427 245.298 18.152C244.989 18.4613 244.546 18.7173 243.97 18.92C243.405 19.1227 242.663 19.224 241.746 19.224ZM251.495 17.848L251.367 19.16H250.023C249.319 19.16 248.796 18.9733 248.455 18.6C248.113 18.216 247.943 17.752 247.943 17.208V12.408H246.663L246.807 11.112H247.943V9.224L249.575 9.064V11.112H251.527V12.408H249.575V16.36C249.575 16.712 249.585 16.9893 249.607 17.192C249.628 17.384 249.687 17.5333 249.783 17.64C249.889 17.736 250.039 17.7947 250.231 17.816C250.433 17.8373 250.711 17.848 251.063 17.848H251.495ZM259.492 17.848L259.284 19.16H258.964C258.388 19.16 257.961 19.0747 257.684 18.904C257.417 18.7333 257.193 18.4613 257.012 18.088C256.404 18.8027 255.598 19.16 254.596 19.16C254.244 19.16 253.918 19.1067 253.62 19C253.332 18.8827 253.081 18.7227 252.868 18.52C252.665 18.3173 252.505 18.0773 252.388 17.8C252.281 17.512 252.228 17.192 252.228 16.84C252.228 16.3067 252.377 15.864 252.676 15.512C252.974 15.1493 253.353 14.8613 253.812 14.648C254.27 14.424 254.766 14.2693 255.3 14.184C255.844 14.088 256.356 14.0347 256.836 14.024C256.825 13.3947 256.692 12.968 256.436 12.744C256.19 12.5093 255.785 12.392 255.22 12.392C254.537 12.392 253.833 12.6107 253.108 13.048L252.916 11.736C253.705 11.2133 254.622 10.952 255.668 10.952C256.649 10.952 257.358 11.224 257.796 11.768C258.244 12.312 258.468 13.2347 258.468 14.536V16.328C258.468 16.6267 258.478 16.8773 258.5 17.08C258.521 17.272 258.558 17.4267 258.612 17.544C258.676 17.6507 258.761 17.7307 258.868 17.784C258.974 17.8267 259.118 17.848 259.3 17.848H259.492ZM256.852 16.984V15.128C254.889 15.2027 253.908 15.7467 253.908 16.76C253.908 17.5067 254.297 17.88 255.076 17.88C255.78 17.88 256.372 17.5813 256.852 16.984ZM264.889 10.872L264.553 12.552H263.977C263.817 12.552 263.651 12.5787 263.481 12.632C263.31 12.6853 263.145 12.7547 262.985 12.84C262.835 12.9253 262.697 13.0267 262.569 13.144C262.451 13.2507 262.361 13.368 262.297 13.496V19H260.601V11.112H262.025L262.153 12.248C262.985 11.3307 263.811 10.872 264.633 10.872H264.889ZM277.988 19H276.18L273.748 14.696H271.492V19H269.748V7.8H273.54C274.767 7.8 275.716 8.05067 276.388 8.552C277.06 9.05333 277.396 9.89067 277.396 11.064C277.396 12.4933 276.73 13.5547 275.396 14.248L277.988 19ZM273.364 9.192H271.492V13.08H273.604C274.223 13.08 274.714 12.92 275.076 12.6C275.439 12.28 275.62 11.784 275.62 11.112C275.62 9.832 274.868 9.192 273.364 9.192ZM285.82 17.848L285.612 19.16H285.292C284.716 19.16 284.289 19.0747 284.012 18.904C283.745 18.7333 283.521 18.4613 283.34 18.088C282.732 18.8027 281.927 19.16 280.924 19.16C280.572 19.16 280.247 19.1067 279.948 19C279.66 18.8827 279.409 18.7227 279.196 18.52C278.993 18.3173 278.833 18.0773 278.716 17.8C278.609 17.512 278.556 17.192 278.556 16.84C278.556 16.3067 278.705 15.864 279.004 15.512C279.303 15.1493 279.681 14.8613 280.14 14.648C280.599 14.424 281.095 14.2693 281.628 14.184C282.172 14.088 282.684 14.0347 283.164 14.024C283.153 13.3947 283.02 12.968 282.764 12.744C282.519 12.5093 282.113 12.392 281.548 12.392C280.865 12.392 280.161 12.6107 279.436 13.048L279.244 11.736C280.033 11.2133 280.951 10.952 281.996 10.952C282.977 10.952 283.687 11.224 284.124 11.768C284.572 12.312 284.796 13.2347 284.796 14.536V16.328C284.796 16.6267 284.807 16.8773 284.828 17.08C284.849 17.272 284.887 17.4267 284.94 17.544C285.004 17.6507 285.089 17.7307 285.196 17.784C285.303 17.8267 285.447 17.848 285.628 17.848H285.82ZM283.18 16.984V15.128C281.217 15.2027 280.236 15.7467 280.236 16.76C280.236 17.5067 280.625 17.88 281.404 17.88C282.108 17.88 282.7 17.5813 283.18 16.984ZM290.948 17.848L290.82 19.16H289.476C288.772 19.16 288.249 18.9733 287.908 18.6C287.566 18.216 287.396 17.752 287.396 17.208V12.408H286.116L286.26 11.112H287.396V9.224L289.028 9.064V11.112H290.98V12.408H289.028V16.36C289.028 16.712 289.038 16.9893 289.06 17.192C289.081 17.384 289.14 17.5333 289.236 17.64C289.342 17.736 289.492 17.7947 289.684 17.816C289.886 17.8373 290.164 17.848 290.516 17.848H290.948ZM293.889 9.528H292.257V7.8H293.889V9.528ZM293.889 19H292.257V11.112H293.889V19ZM302.876 19H301.244V14.68C301.244 13.8693 301.094 13.2827 300.796 12.92C300.508 12.5467 300.028 12.36 299.356 12.36C298.438 12.36 297.798 12.664 297.436 13.272V19H295.804V11.112H297.18L297.292 11.816C297.964 11.24 298.732 10.952 299.596 10.952C301.782 10.952 302.876 12.1947 302.876 14.68V19ZM307.862 23C307.254 23 306.715 22.936 306.246 22.808C305.787 22.68 305.403 22.504 305.094 22.28C304.785 22.0667 304.55 21.816 304.39 21.528C304.241 21.2507 304.166 20.952 304.166 20.632C304.166 19.8107 304.619 19.2187 305.526 18.856C305.014 18.5893 304.758 18.2427 304.758 17.816C304.758 17.3253 305.051 16.9467 305.638 16.68C304.763 16.04 304.326 15.1813 304.326 14.104C304.326 13.656 304.401 13.24 304.55 12.856C304.699 12.4613 304.913 12.1253 305.19 11.848C305.467 11.5707 305.803 11.352 306.198 11.192C306.593 11.032 307.041 10.952 307.542 10.952C308.278 10.952 308.923 11.1333 309.478 11.496C310.011 11.2187 310.625 11.08 311.318 11.08H311.574L311.414 12.136H310.934C310.838 12.136 310.726 12.1467 310.598 12.168C310.47 12.1787 310.326 12.1947 310.166 12.216C310.593 12.7387 310.806 13.352 310.806 14.056C310.806 14.472 310.731 14.872 310.582 15.256C310.443 15.6293 310.235 15.96 309.958 16.248C309.691 16.536 309.361 16.7653 308.966 16.936C308.571 17.1067 308.123 17.192 307.622 17.192C307.291 17.192 306.945 17.1493 306.582 17.064C306.379 17.1707 306.278 17.304 306.278 17.464C306.278 17.5707 306.305 17.656 306.358 17.72C306.422 17.784 306.539 17.8427 306.71 17.896C306.881 17.9387 307.115 17.9867 307.414 18.04C307.713 18.0933 308.097 18.1573 308.566 18.232C308.918 18.296 309.275 18.376 309.638 18.472C310.011 18.5573 310.353 18.6853 310.662 18.856C310.971 19.016 311.227 19.2293 311.43 19.496C311.633 19.7627 311.745 20.0987 311.766 20.504C311.766 20.856 311.675 21.1813 311.494 21.48C311.323 21.7893 311.067 22.056 310.726 22.28C310.395 22.504 309.985 22.68 309.494 22.808C309.014 22.936 308.47 23 307.862 23ZM307.558 12.216C307.014 12.216 306.593 12.3867 306.294 12.728C305.995 13.0693 305.846 13.5173 305.846 14.072C305.846 14.6587 305.995 15.1227 306.294 15.464C306.603 15.7947 307.03 15.96 307.574 15.96C308.118 15.96 308.539 15.784 308.838 15.432C309.137 15.08 309.286 14.616 309.286 14.04C309.286 13.464 309.131 13.016 308.822 12.696C308.523 12.376 308.102 12.216 307.558 12.216ZM308.102 19.432C307.974 19.432 307.803 19.416 307.59 19.384C307.387 19.352 307.137 19.3093 306.838 19.256C306.486 19.3733 306.198 19.5493 305.974 19.784C305.75 20.0187 305.638 20.2747 305.638 20.552C305.638 20.9147 305.835 21.208 306.23 21.432C306.625 21.6667 307.174 21.784 307.878 21.784C308.582 21.784 309.142 21.6667 309.558 21.432C309.985 21.1973 310.198 20.9147 310.198 20.584C310.198 20.04 309.499 19.656 308.102 19.432Z" fill="white"/>
<path d="M105 3L107.245 9.90983H114.511L108.633 14.1803L110.878 21.0902L105 16.8197L99.1221 21.0902L101.367 14.1803L95.4894 9.90983H102.755L105 3Z" fill="#FFE607"/>
<path d="M130 3L132.245 9.90983H139.511L133.633 14.1803L135.878 21.0902L130 16.8197L124.122 21.0902L126.367 14.1803L120.489 9.90983H127.755L130 3Z" fill="#FFE607"/>
<path d="M155 3L157.245 9.90983H164.511L158.633 14.1803L160.878 21.0902L155 16.8197L149.122 21.0902L151.367 14.1803L145.489 9.90983H152.755L155 3Z" fill="#FFE607"/>
<path d="M180 3L182.245 9.90983H189.511L183.633 14.1803L185.878 21.0902L180 16.8197L174.122 21.0902L176.367 14.1803L170.489 9.90983H177.755L180 3Z" fill="#FFE607"/>
<path d="M205 3L207.245 9.90983H214.511L208.633 14.1803L210.878 21.0902L205 16.8197L199.122 21.0902L201.367 14.1803L195.489 9.90983H202.755L205 3Z" fill="#FFE607"/>
</svg>
