<svg width="40" height="40" viewBox="0 0 40 40" fill="none" xmlns="http://www.w3.org/2000/svg">
<circle cx="20" cy="20" r="20" fill="#C4C4C4"/>
<g clip-path="url(#clip0_26_107)">
<path d="M27.0002 15.8493C26.4481 16.0939 25.8558 16.2598 25.2334 16.3339C25.8689 15.9534 26.3553 15.3497 26.5859 14.6327C25.9898 14.9851 25.3318 15.241 24.6306 15.3797C24.0692 14.7808 23.2706 14.4077 22.3848 14.4077C20.6854 14.4077 19.3076 15.7856 19.3076 17.484C19.3076 17.7249 19.3348 17.9602 19.3873 18.1851C16.8302 18.0567 14.5629 16.8316 13.0453 14.9701C12.7801 15.4238 12.6292 15.9524 12.6292 16.5167C12.6292 17.5843 13.1728 18.5263 13.9977 19.0774C13.4934 19.0606 13.0191 18.9219 12.6039 18.6913V18.7297C12.6039 20.22 13.6649 21.4639 15.0718 21.747C14.8141 21.8163 14.5423 21.8547 14.2611 21.8547C14.0624 21.8547 13.8702 21.8351 13.6818 21.7976C14.0736 23.0208 15.2096 23.9103 16.5556 23.9347C15.503 24.7595 14.1758 25.2497 12.7342 25.2497C12.4858 25.2497 12.2411 25.2347 12.0002 25.2076C13.3622 26.0821 14.9791 26.592 16.7169 26.592C22.3774 26.592 25.4715 21.9035 25.4715 17.8374L25.4612 17.439C26.0657 17.0078 26.5887 16.4661 27.0002 15.8493Z" fill="black"/>
</g>
<defs>
<clipPath id="clip0_26_107">
<rect width="15" height="15" fill="white" transform="translate(12 13)"/>
</clipPath>
</defs>
</svg>
